<svg width="28" height="28" viewBox="0 0 28 28" fill="none" xmlns="http://www.w3.org/2000/svg">
<path d="M15.9784 0H11.6975C9.12209 0 7.01398 2.01527 6.90296 4.59058L6.84827 5.86338L9.38889 5.97442L9.44358 4.70162C9.49496 3.49178 10.4827 2.54711 11.6925 2.54711H15.9734C17.1832 2.54711 18.1709 3.49344 18.2223 4.70162L18.277 5.97442L20.8176 5.86338L20.7629 4.59058C20.6519 2.01513 18.5438 0 15.9684 0H15.9784Z" fill="black"/>
<path d="M22.8855 5.9397H20.8239L21.3111 11.0475C21.3791 11.7469 20.8653 12.3667 20.1659 12.4347C20.1228 12.4347 20.0847 12.4396 20.0433 12.4396C19.3936 12.4396 18.8434 11.9474 18.7787 11.2895L18.2699 5.93983H9.41512L8.90632 11.2895C8.83837 11.9889 8.22353 12.5026 7.51917 12.4347C6.8198 12.3667 6.30605 11.7469 6.37397 11.0476L6.86121 5.93972H4.79955C3.48036 5.93972 2.24567 6.46507 1.3325 7.41967C0.420996 8.37427 -0.0546431 9.62555 0.00500186 10.9447L0.548595 23.4094C0.659633 25.9848 2.76773 28 5.34318 28H22.3521C24.9275 28 27.0356 25.9847 27.1467 23.4094L27.6902 10.9447C27.7499 9.62555 27.2743 8.37427 26.3627 7.41967C25.4512 6.46507 24.2199 5.93972 22.8957 5.93972L22.8855 5.9397Z" fill="black"/>
</svg>
