<?xml version="1.0" encoding="UTF-8"?>
<svg id="Layer_1" xmlns="http://www.w3.org/2000/svg" xmlns:xlink="http://www.w3.org/1999/xlink" version="1.1" viewBox="0 0 1360 567.1">
  <!-- Generator: Adobe Illustrator 30.2.1, SVG Export Plug-In . SVG Version: 2.1.1 Build 1)  -->
  <defs>
    <style>
      .st0 {
        mask: url(#mask);
      }

      .st1 {
        mix-blend-mode: difference;
      }

      .st2 {
        fill: #fff;
      }
    </style>
    <mask id="mask" x="-20.23" y="-15.9" width="1400" height="655.06" maskUnits="userSpaceOnUse">
      <g id="mask0_51_765">
        <path class="st2" d="M1232.58,458.9h-72.74v-47.02h199.7v47.02h-73.04v180.26h-53.92v-180.26Z"/>
        <path class="st2" d="M971.09,411.88h174.31v47.02h-120.7v39.81h114.11v47.34h-114.11v45.77h120.7v47.34h-174.31v-227.28Z"/>
        <path class="st2" d="M801.22,501.85l82.45-89.97h65.52l-84.02,90.6,88.41,136.68h-64.58l-61.45-95.93-26.33,28.84v67.09h-53.61v-227.28h53.61v89.97Z"/>
        <path class="st2" d="M611.65,553.58h-36.36v85.58h-53.61v-227.28h87.46c58.94,0,103.14,13.79,103.14,70.22,0,33.54-18.5,52.67-44.52,62.7l56.11,94.36h-63.01l-49.22-85.58ZM575.28,457.02v51.41h35.42c25.39,0,44.83-4.39,44.83-25.71s-19.44-25.71-44.83-25.71h-35.42Z"/>
        <path class="st2" d="M357.84,411.88h58.94l85.9,227.28h-58.31l-13.79-40.44h-87.78l-13.48,40.44h-57.06l85.58-227.28ZM357.52,555.15h58.62l-29.15-86.52-29.47,86.52Z"/>
        <path class="st2" d="M103.14,639.16l-51.1-181.83v181.83H0v-227.28h84.64l43.58,163.02,44.52-163.02h83.7v227.28h-52.04v-182.14l-50.79,182.14h-50.47Z"/>
        <g class="st1">
          <path class="st2" d="M1289.03,277.8v67c7.14-3.64,13.86-7.51,20.06-11.57v-44.56c-6.61-3.83-13.3-7.46-20.06-10.87Z"/>
          <path class="st2" d="M1059.87,181.67c0-2.65-.76-4.71-2.3-6.15-1.54-1.42-3.67-1.93-6.4-1.48-3.32.56-6.64,1.16-9.96,1.81v62.65c4.63-1.25,8.3-2.83,10.98-4.83,2.72-2.02,4.7-4.62,5.88-7.79,1.19-3.18,1.8-7.17,1.8-11.99v-32.22Z"/>
          <path class="st2" d="M1359.54,258.35c0-67.98-109.53-123.1-244.65-123.1s-244.66,55.11-244.66,123.1c0,23.9,13.53,46.2,36.94,65.07,4.77-3.04,9.58-5.98,14.45-8.79v19.2c4.96,3.22,10.24,6.31,15.82,9.25.7-1.85,1.05-3.82,1.05-5.91v-13.52c0-5.33-1.26-10.16-3.78-14.51-2.52-4.33-6.12-9.06-10.76-14.07v-.25c-.32-.16-.47-.4-.47-.74-5.42-5.89-9.47-11.18-12.22-16.06-2.74-4.87-4.11-10.69-4.11-17.51v-23.21c0-7.98,1.92-15.35,5.82-22,3.9-6.63,9.54-12.13,17.02-16.25,7.5-4.1,13.32-4.85,17.39-2.57,4.05,2.29,6.12,7.47,6.1,15.47v38.95c-5.05,2.32-10.05,4.77-15.01,7.33v-35.36c0-2.99-.72-5.05-2.13-6.14-1.42-1.09-3.53-.9-6.34.65-2.81,1.53-4.91,3.64-6.29,6.26-1.4,2.64-2.08,5.45-2.1,8.44v19.62c0,4.99,1.08,9.41,3.25,13.24,2.17,3.85,5.59,8.55,10.29,14.23.32.42.63.83.94,1.25,5.51,6.1,9.8,11.97,12.83,17.43,3.02,5.47,4.56,11.64,4.56,18.46v15.48c0,6.35-1.29,12.1-3.86,17.3,43.53,20.08,101.55,32.34,165.27,32.34s116.29-11.13,159.07-29.58v-163.61c5.07,2.29,10.09,4.68,15.07,7.18v66.81c6.76,3.39,13.45,7,20.06,10.82v-66.77c4.86,2.81,9.68,5.75,14.45,8.79v107.57c22.82-18.71,36-40.73,36-64.29ZM1015.85,331.52c-5.2,1.39-10.38,2.88-15.55,4.48-6.74-25.92-13.44-51.65-20.08-77.2v84.07c-5.17,1.93-10.29,3.97-15.4,6.14v-164.3c5.1-2.16,10.24-4.2,15.4-6.14v76.27c6.64-27.91,13.33-55.62,20.08-83.14,5.16-1.6,10.35-3.11,15.55-4.48-7.3,27.99-14.55,56.2-21.77,84.64,7.2,26.33,14.47,52.88,21.77,79.64v.02ZM1063.63,321.97c-5.92-23.56-11.83-46.99-17.74-70.29-1.5.55-3.07,1.05-4.7,1.55v72.43c-5.34,1.04-10.69,2.2-16,3.48v-164.28c5.22-1.25,10.48-2.39,15.74-3.43,0,0,.07,0,.11-.02.05,0,.1-.02.14-.04,3.39-.67,6.79-1.28,10.22-1.85,7.67-1.28,13.72.05,18.09,3.78,4.37,3.73,6.57,9.64,6.57,17.62v29.72c0,7.98-1.33,14.74-3.99,20.28-2.65,5.54-6.55,10.04-11.69,13.61-.21.16-.44.3-.66.44,6.41,24.92,12.86,50,19.31,75.25-5.14.49-10.28,1.07-15.4,1.76v-.02ZM1130.35,318.79c-1.24-13.03-2.48-26.06-3.72-39.07-7.58-.23-15.17-.21-22.75,0-1.24,13.01-2.48,26.04-3.72,39.07-5.44.21-10.86.54-16.27.98,6.04-55.25,12.11-110.36,18.17-165.34,8.7-.3,17.41-.3,26.11,0,6.15,54.97,12.3,110.08,18.43,165.34-5.41-.44-10.83-.76-16.26-.97v-.02ZM1198.45,178.6c-6.37-1.41-12.81-2.64-19.24-3.73v148.95c-5.29-.88-10.59-1.65-15.9-2.32v-148.95c-6.64-.83-13.3-1.5-19.97-1.97v-15.35c18.49,1.34,36.9,4.01,55.11,8.02v15.35ZM1256.75,245.93c-5.14-2.02-10.31-3.92-15.52-5.71v-43.19c0-2.99-.78-5.64-2.36-7.91-1.57-2.29-3.84-3.9-6.83-4.85-2.83-.9-5.03-.69-6.62.6-1.59,1.28-2.38,3.43-2.38,6.42v120.85c0,2.99.79,5.59,2.38,7.81,1.59,2.22,3.79,3.76,6.62,4.66,2.99.95,5.26.83,6.83-.39,1.58-1.21,2.36-3.31,2.36-6.31v-35.96c5.21,1.79,10.38,3.69,15.52,5.71v35.45c0,8-2.08,13.28-6.26,15.95-4.17,2.69-10.31,2.58-18.45,0-7.99-2.53-14.14-6.33-18.42-11.71-4.28-5.36-6.43-11.99-6.43-19.98v-119.84c0-7.98,2.15-13.59,6.43-16.72,4.28-3.11,10.45-3.55,18.42-1.04,8.14,2.59,14.28,6.93,18.45,12.73,4.18,5.8,6.26,12.77,6.26,20.75v42.7Z"/>
          <path class="st2" d="M1105.29,264.96c6.64-.18,13.3-.18,19.94,0-3.32-34.89-6.64-69.74-9.96-104.54-3.32,34.8-6.64,69.65-9.96,104.54h-.02Z"/>
        </g>
      </g>
    </mask>
  </defs>
  <g class="st0">
    <rect class="st2" x="-20.23" y="-15.9" width="1400" height="560.04" rx="10" ry="10"/>
  </g>
  <circle class="st2" cx="401.38" cy="104.71" r="66.61"/>
</svg>