<svg width="183" height="27" viewBox="0 0 183 27" fill="none" xmlns="http://www.w3.org/2000/svg">
<path d="M44.9344 15.2944V22.4831C45.7013 22.0925 46.4213 21.6775 47.0869 21.2416V16.4605C46.3781 16.0492 45.66 15.6605 44.9344 15.2944Z" fill="black"/>
<path d="M20.3475 4.98111C20.3475 4.69621 20.265 4.47545 20.1 4.32073C19.935 4.1679 19.7062 4.11319 19.4137 4.16224C19.0575 4.22262 18.7012 4.28677 18.345 4.35658C18.345 6.59809 18.345 8.83772 18.345 11.0792C18.8418 10.9453 19.2356 10.7755 19.5225 10.5604C19.815 10.3434 20.0268 10.0641 20.1543 9.72451C20.2818 9.383 20.3475 8.9547 20.3475 8.43772C20.3475 7.28489 20.3475 6.13394 20.3475 4.98111Z" fill="black"/>
<path d="M52.5 13.2075C52.5 5.91321 40.7475 0 26.25 0C11.7525 0 0 5.91321 0 13.2075C0 15.7717 1.45125 18.1642 3.96375 20.1887C4.47562 19.8623 4.99125 19.5472 5.51438 19.2453V21.3057C6.04688 21.6509 6.61312 21.983 7.21125 22.2981C7.28625 22.1 7.32375 21.8887 7.32375 21.6642V20.2132C7.32375 19.6415 7.18875 19.1226 6.91875 18.6566C6.64875 18.1925 6.2625 17.6849 5.76375 17.1472V17.1208C5.73 17.1038 5.71313 17.0774 5.71313 17.0415C5.13188 16.4094 4.69687 15.8415 4.4025 15.3189C4.10812 14.7962 3.96188 14.1717 3.96188 13.4396V10.9491C3.96188 10.0925 4.16812 9.30189 4.58625 8.58868C5.00437 7.87736 5.61 7.28679 6.4125 6.84528C7.21687 6.40566 7.84125 6.32453 8.27813 6.56981C8.71313 6.81509 8.93437 7.3717 8.9325 8.23019V12.4094C8.39062 12.6585 7.85438 12.9208 7.32188 13.1962V9.40189C7.32188 9.08113 7.245 8.86038 7.09313 8.7434C6.94125 8.62641 6.71437 8.64717 6.4125 8.81321C6.11062 8.97736 5.88562 9.20377 5.7375 9.48491C5.5875 9.76792 5.51438 10.0698 5.5125 10.3906V12.4962C5.5125 13.0321 5.62875 13.5057 5.86125 13.917C6.09375 14.3302 6.46125 14.834 6.96563 15.4434C6.99938 15.4887 7.03313 15.5321 7.06688 15.5774C7.6575 16.2321 8.11875 16.8623 8.44312 17.4472C8.7675 18.034 8.9325 18.6962 8.9325 19.4283V21.0887C8.9325 21.7698 8.79375 22.3868 8.51813 22.9453C13.1888 25.1 19.4138 26.4151 26.25 26.4151C33.0862 26.4151 38.7281 25.2208 43.3181 23.2415V5.68679C43.8619 5.93208 44.4 6.18868 44.9344 6.4566V13.6245C45.66 13.9887 46.3781 14.3755 47.0869 14.7849V7.62075C47.6081 7.92264 48.1256 8.23774 48.6375 8.56415V20.1057C51.0862 18.0981 52.5 15.7358 52.5 13.2075ZM15.6244 21.0585C15.0656 21.2075 14.5106 21.3679 13.9556 21.5396C13.2319 18.7585 12.5138 15.9981 11.8013 13.2566V22.2774C11.2463 22.4849 10.6969 22.7038 10.1494 22.9358V5.30755C10.6969 5.07547 11.2481 4.8566 11.8013 4.64906V12.8321C12.5138 9.83774 13.2319 6.86415 13.9556 3.91132C14.5088 3.73962 15.0656 3.57736 15.6244 3.43019C14.8406 6.43396 14.0625 9.46038 13.2881 12.5113C14.0606 15.3358 14.8406 18.1849 15.6244 21.0566V21.0585ZM20.7506 20.034C20.115 17.5057 19.4813 14.9925 18.8475 12.4925C18.6863 12.5509 18.5175 12.6057 18.3431 12.6585C18.3431 15.2491 18.3431 17.8396 18.3431 20.4302C17.7694 20.5415 17.1956 20.666 16.6256 20.8038V3.17736C17.1862 3.0434 17.7506 2.92075 18.315 2.80943C18.315 2.80943 18.3225 2.80943 18.3263 2.80755C18.3319 2.80755 18.3375 2.80566 18.3413 2.80377C18.705 2.73208 19.0706 2.66604 19.4381 2.60566C20.2612 2.46792 20.91 2.61132 21.3788 3.01132C21.8475 3.41132 22.0837 4.04528 22.0837 4.90189V8.09057C22.0837 8.94717 21.9412 9.6717 21.6562 10.266C21.3713 10.8604 20.9531 11.3434 20.4019 11.7264C20.3794 11.7434 20.355 11.7585 20.3306 11.7736C21.0187 14.4472 21.7106 17.1377 22.4025 19.8472C21.8512 19.9 21.3 19.9623 20.7506 20.0358V20.034ZM27.9094 19.6925C27.7763 18.2943 27.6431 16.8962 27.51 15.5C26.6963 15.4755 25.8825 15.4774 25.0687 15.5C24.9356 16.8962 24.8025 18.2943 24.6694 19.6925C24.0863 19.7151 23.505 19.7509 22.9237 19.7981C23.5725 13.8698 24.2231 7.9566 24.8738 2.05849C25.8075 2.02642 26.7413 2.02642 27.675 2.05849C28.335 7.9566 28.995 13.8698 29.6531 19.7981C29.0719 19.7509 28.4906 19.717 27.9075 19.6943L27.9094 19.6925ZM35.2163 4.65094C34.5319 4.5 33.8419 4.36792 33.1519 4.25094C33.1519 9.57736 33.1519 14.9057 33.1519 20.2321C32.5837 20.1377 32.0156 20.0547 31.4456 19.983C31.4456 14.6566 31.4456 9.3283 31.4456 4.00189C30.7331 3.91321 30.0187 3.84151 29.3025 3.79057V2.1434C31.2862 2.28679 33.2625 2.57358 35.2163 3.00377V4.65094ZM41.4712 11.8755C40.92 11.6585 40.365 11.4547 39.8063 11.2623V6.6283C39.8063 6.30755 39.7219 6.02264 39.5531 5.77924C39.3844 5.53396 39.1406 5.36038 38.82 5.25849C38.5162 5.16226 38.28 5.18491 38.1094 5.32264C37.9387 5.46038 37.8544 5.69057 37.8544 6.01132V18.9774C37.8544 19.2981 37.9387 19.5774 38.1094 19.8151C38.28 20.0528 38.5162 20.2189 38.82 20.3151C39.1406 20.417 39.3844 20.4038 39.5531 20.2736C39.7219 20.1434 39.8063 19.9189 39.8063 19.5962V15.7377C40.365 15.9302 40.92 16.134 41.4712 16.3509V20.1547C41.4712 21.0132 41.2481 21.5792 40.8 21.866C40.3519 22.1547 39.6937 22.1434 38.82 21.866C37.9631 21.5943 37.3031 21.1868 36.8438 20.6094C36.3844 20.034 36.1538 19.3226 36.1538 18.466V5.60755C36.1538 4.75094 36.3844 4.14906 36.8438 3.81321C37.3031 3.47925 37.965 3.43208 38.82 3.70189C39.6937 3.97925 40.3519 4.44528 40.8 5.06792C41.2481 5.69057 41.4712 6.43774 41.4712 7.29434V11.8755Z" fill="black"/>
<path d="M25.2206 13.9169C25.9331 13.8981 26.6475 13.8981 27.36 13.9169C27.0038 10.1735 26.6475 6.43391 26.2913 2.69995C25.935 6.43391 25.5788 10.1735 25.2225 13.9169H25.2206Z" fill="black"/>
<path d="M171.187 6.81694H164.691V2.61694H182.527V6.81694H176.003V22.9169H171.187V6.81694Z" fill="black"/>
<path d="M147.832 2.61694H163.4V6.81694H152.62V10.3729H162.812V14.6009H152.62V18.6889H163.4V22.9169H147.832V2.61694Z" fill="black"/>
<path d="M132.659 10.6529L140.023 2.61694H145.875L138.371 10.7089L146.267 22.9169H140.499L135.011 14.3489L132.659 16.9249V22.9169H127.871V2.61694H132.659V10.6529Z" fill="black"/>
<path d="M115.728 15.2729H112.48V22.9169H107.692V2.61694H115.504C120.768 2.61694 124.716 3.84894 124.716 8.88894C124.716 11.8849 123.064 13.5929 120.74 14.4889L125.752 22.9169H120.124L115.728 15.2729ZM112.48 6.64894V11.2409H115.644C117.912 11.2409 119.648 10.8489 119.648 8.94494C119.648 7.06894 117.912 6.64894 115.644 6.64894H112.48Z" fill="black"/>
<path d="M93.0587 2.61694H98.3227L105.995 22.9169H100.787L99.5547 19.3049H91.7147L90.5107 22.9169H85.4147L93.0587 2.61694ZM93.0307 15.4129H98.2667L95.6627 7.68494L93.0307 15.4129Z" fill="black"/>
<path d="M70.31 22.9169L65.746 6.67694V22.9169H61.098V2.61694H68.658L72.55 17.1769L76.526 2.61694H84.002V22.9169H79.354V6.64894L74.818 22.9169H70.31Z" fill="black"/>
</svg>
