<svg width="281" height="119" viewBox="0 0 281 119" fill="none" xmlns="http://www.w3.org/2000/svg">
<path d="M248.247 83.1065C246.234 83.4245 244.874 82.0924 243.682 80.5354C242.506 82.996 241.971 87.2985 245.033 88.2971C247.639 89.1483 250.276 89.2899 252.994 89.4566C253.647 89.4973 254.333 90.1721 254.389 90.6917C254.449 91.2405 254.015 92.0257 253.386 92.3282C249.08 94.401 244.754 96.3264 240.121 97.6274L233.787 99.4054C232.386 99.799 230.896 98.7152 230.028 97.7127L226.808 93.9957C226.05 96.7064 225.818 98.9634 225.366 101.54C225.037 103.417 223.952 105.449 222.317 106.537C217.048 110.037 203.139 114.686 196.743 116.674C195.617 117.023 194.518 117.281 193.424 117.071C190.601 116.534 194.115 112.016 194.993 111.008C197.52 108.104 200.451 105.789 203.534 103.504L205.419 102.108C207.87 98.4631 210 91.2056 211.017 86.9185L212.536 80.5102L214.809 69.0277L217.395 55.2513C215.795 53.4966 214.39 51.6197 214.01 49.1804C213.592 46.5027 214.039 43.4935 215.421 41.1337C217.409 37.7347 219.901 37.0425 220.187 32.643C220.647 25.6317 222.162 16.7086 225.647 10.6881C224.514 10.1375 222.024 9.50341 221.865 8.41371C221.646 6.91295 224.245 5.82713 225.719 5.48975L227.469 5.09033C227.922 4.09758 228.157 3.12616 228.691 2.13922C229.226 1.15229 230.718 0.109128 231.863 0.0916775C234.857 0.0490203 237.684 -0.142937 240.633 0.202198C242.483 0.419363 244.355 1.88522 245.759 2.96716C247.639 4.41557 248.532 6.43403 248.61 8.70456C250.063 9.75548 251.216 11.2097 251.473 13.0071C251.776 15.1148 250.756 16.9626 249.028 18.1725C249.063 20.3306 247.97 22.0757 246.052 23.1111C245.98 24.8697 246.017 26.5585 246.647 28.1621C247.228 29.6415 248.883 30.7176 247.976 31.7608C247.069 32.804 245.827 32.5635 244.663 32.5247C243.514 34.2853 242.268 36.1235 240.545 37.4807C242.973 40.3504 244.808 43.6156 245.736 47.2764C246.903 51.8737 247.563 56.4031 248.377 61.0915L250.317 72.2793C252.398 73.3865 252.593 75.9459 253.527 78.104C254.325 79.9499 254.992 81.8423 256.003 83.5854L260.756 91.7737C262.581 94.9187 264.56 97.7806 266.677 100.722C267.927 102.457 268.913 104.29 270.303 105.887C272.147 108.005 274.651 109.399 277.169 110.57C280.583 112.158 280.454 113.523 280.31 117.11L279.493 118.204C278.532 118.452 277.621 118.272 276.774 117.793L271.202 114.636C268.848 113.302 266.73 111.698 264.806 109.81C264.225 109.24 263.903 108.422 263.88 107.648C263.736 102.95 264.566 104.703 262.384 101.331C259.156 96.338 256.005 91.4363 253.2 86.1933C252.791 85.4274 252.494 84.7023 252.016 84.0333L250.665 82.1525C249.914 82.393 249.086 82.9708 248.243 83.1046L248.247 83.1065ZM232.032 7.32208L237.062 9.62751C239.395 10.6978 244.095 12.4041 246.073 10.438C247.862 8.6619 247.032 5.72825 244.897 4.05298C240.669 0.733475 240.427 1.83481 236.354 1.52845C235.099 1.43344 234.027 1.35588 232.747 1.4315C233.266 2.1179 233.781 2.16249 234.399 2.39323L241.859 5.16013C242.38 5.35403 242.638 5.60609 242.528 6.11798C242.435 6.55037 241.942 6.73845 241.479 6.56588L237.379 5.04185C235.12 4.20228 232.878 3.3123 230.734 2.17025C230.406 2.23036 229.893 2.64529 229.78 2.94389L228.802 5.54405C229.951 6.25952 230.904 6.80437 232.03 7.32014L232.032 7.32208ZM249.142 16.2103C251.03 14.0193 250.086 11.7972 248.081 10.0657C246.881 12.2257 244.738 13.0595 242.347 12.6853C239.522 12.2432 236.974 11.1554 234.388 9.97458C232.138 8.94693 230.102 7.96969 227.924 6.68804C227.475 6.4224 223.807 7.1243 223.427 8.14614C223.892 8.49709 224.342 8.76467 224.799 8.87906C229.309 10.0114 233.721 13.0265 237.496 15.5588L240.27 17.4202C241.536 18.2695 242.878 18.2384 244.299 18.1493C246.102 18.0349 247.877 17.68 249.142 16.2122V16.2103ZM234.938 62.5322C231.493 58.1811 228.232 53.8844 225.134 49.2483C224.892 48.8838 226.041 48.2051 226.333 48.624C230.307 54.309 234.322 59.7827 238.825 65.0024C240.53 66.9782 242.157 68.7019 244.302 70.3539C243.008 65.9409 241.016 62.315 239.776 58.28C239.083 56.023 238.459 53.9115 237.874 51.577C237.75 51.0826 239.133 50.8053 239.228 51.1912C240.303 55.5732 241.723 60.4167 243.74 64.3974C244.576 64.4285 245.792 64.2365 246.193 64.9714L247.959 68.2017C248.292 67.7383 248.048 67.4028 247.959 66.9452C247.337 63.8254 246.868 60.8045 246.412 57.6072C245.847 53.6265 244.981 49.8397 243.87 45.9715C243.126 43.3791 241.572 41.1822 240.03 39.0203C239.689 38.5413 238.99 38.5452 238.418 38.5666C238.073 38.5782 237.674 37.8394 237.688 37.4206C239.666 36.6955 241.472 35.0415 242.404 33.2596C240.797 33.0754 236.715 32.8621 237.221 30.6517C237.395 29.8897 238.05 29.3119 238.881 29.2944C242.489 29.2169 243.252 31.1054 246.037 31.2722C246.176 31.2799 246.6 31.086 246.602 30.9464C246.602 30.8417 246.513 30.5295 246.443 30.4462C245.085 28.7884 244.473 26.5876 244.667 24.3733C243.132 24.7631 241.888 25.1198 240.542 24.7146C239.195 24.3093 238.18 22.8706 238.42 21.4629C238.596 20.4275 239.375 19.8206 240.23 19.0916L238.877 18.2035C236.63 16.7261 234.537 15.0624 232.189 13.7594L228.151 11.518C227.876 11.3648 227.254 11.2873 226.876 11.2911C223.454 17.236 221.77 26.9114 221.548 33.6299C221.509 34.8147 221.053 35.8714 220.424 36.7866C219.676 37.8724 218.959 38.933 218.079 39.885C216.642 41.4401 215.741 43.0882 215.411 45.2211C215.229 46.4019 215.064 47.8018 215.336 48.9962C215.896 51.4587 217.455 53.3104 219.145 55.0439L221.825 57.7933L226.002 62.1482L227.94 64.0988C230.021 66.191 232.045 68.2056 234.33 70.0825L241.694 76.1359C242.169 76.5257 242.731 77.1093 243.13 77.5921L245.911 80.9504C246.848 82.0827 248.21 82.0575 249.332 81.2121C249.817 80.8457 251.012 80.4908 251.51 81.0357C253.052 82.7265 254.043 84.7391 255.11 86.7266L256.135 88.6306C258.596 93.2008 261.446 97.4141 264.345 101.734C264.701 102.265 265.213 103.146 265.218 103.724L265.257 107.669C265.273 109.222 270.857 112.87 272.196 113.622L276.677 116.139C277.278 116.476 277.896 116.713 278.627 117C279.241 115.569 279.214 113.24 277.7 112.443C274.68 110.853 271.26 109.632 269.216 106.739L263.444 98.5659C260.983 95.0796 258.999 91.4363 256.8 87.7852C253.676 82.6004 252.816 80.2465 250.739 74.5983C250.621 74.2745 250.055 73.6017 249.687 73.6366L246.441 73.943C242.4 71.1993 237.968 66.3597 234.936 62.5341L234.938 62.5322ZM245.909 21.5929C246.775 20.8037 247.352 20.1367 247.59 19.0354L246.205 19.3126L244.413 19.6694L245.909 21.5929ZM244.403 22.5158C244.471 21.6161 243.498 20.5846 242.717 20.3015C241.706 19.9331 240.499 20.3655 239.968 21.2458C239.468 22.0757 240.071 23.0568 240.999 23.3282C242.02 23.6268 243.68 23.5105 244.403 22.5158ZM242.161 31.4874C241.568 31.0376 238.821 30.2833 238.794 30.8514L238.778 31.1616C239.887 31.5107 241.01 32.1331 242.159 31.4874H242.161ZM230.127 87.5273C228.961 88.2874 228.513 89.1231 228.044 90.207L227.176 92.2138L231.356 97.1155C232.194 98.0986 233.462 98.118 234.587 97.7573C235.973 97.3133 237.498 97.131 238.773 96.4912C241.076 95.3375 244.428 92.2119 244.113 89.4295C240.237 87.6708 241.251 82.5423 242.605 79.279C242.268 78.7923 241.847 78.1428 241.382 77.755L231.784 69.7645L228.503 66.6331C226.765 64.9733 225.171 63.2845 223.501 61.5724L218.612 56.5582L216.985 64.9985L215.433 73.1111C214.576 77.5902 213.817 81.9645 212.608 86.3775L211.061 92.016C210.178 95.2347 209.087 98.308 207.55 101.267C206.917 102.485 206.097 103.301 205.057 104.297L207.217 104.856C209.688 105.496 211.03 108.495 217.572 107.074C218.963 106.772 220.238 106.357 221.427 105.472C222.514 104.666 223.601 103.355 223.844 101.928C224.518 97.957 225.124 94.1179 226.438 90.3156C227.041 88.5705 228.672 85.5961 230.856 86.4318C231.406 86.6432 232.074 87.3315 232.136 88.0276C231.915 88.2564 231.414 88.6636 231.214 88.8051L230.129 87.5235L230.127 87.5273ZM248.203 71.9982L247.185 69.8731C246.976 69.4349 245.083 64.9442 244.473 65.8575C244.374 66.0048 244.302 66.412 244.38 66.5923L246.839 72.3608C247.058 72.6788 248.362 72.3297 248.203 71.9982ZM252.797 90.8856C250.15 90.7305 248.03 90.5599 245.661 89.9666C245.265 91.9307 244.355 93.3365 243.13 95.0815C245.794 94.2556 250.464 92.4329 252.797 90.8856ZM194.925 115.797C201.329 113.804 207.537 111.772 213.921 109.077C211.949 108.586 210.56 108.214 208.936 107.307C207.312 106.399 205.043 105.201 203.065 105.82C200.372 107.256 194.697 112.46 193.829 115.567C194.051 115.706 194.681 115.873 194.925 115.797Z" fill="white"/>
<path d="M41.3285 67.1778L41.3314 59.2324L11.0567 59.2281V67.1778H41.3285ZM52.3808 67.2128C52.3808 73.3144 47.4359 78.2622 41.3314 78.2622L11.0567 78.252L11.0509 91.2546C11.0509 94.3076 8.57843 96.78 5.52398 96.78C2.47682 96.78 0 94.3076 0 91.2546V53.6968C0 50.6438 2.47682 48.1713 5.52398 48.1713L41.3314 48.1816C47.4359 48.1816 52.3808 53.1323 52.3808 59.2324V67.2128Z" fill="white"/>
<path d="M62.5861 96.7957C65.642 96.7957 68.113 94.3218 68.113 91.2717V53.7022C68.113 50.6536 65.642 48.1782 62.5861 48.1782C59.536 48.1782 57.0621 50.6536 57.0621 53.7022V91.2717C57.0621 94.3218 59.536 96.7957 62.5861 96.7957Z" fill="white"/>
<path d="M83.805 91.2543C83.805 94.3073 81.3297 96.7797 78.2767 96.7797C75.2266 96.7797 72.7542 94.3073 72.7542 91.2543L72.7614 55.7751C72.7614 51.5828 76.1631 48.1783 80.3538 48.1783C82.3011 48.1783 84.2455 48.9222 85.7276 50.4042L116.943 81.1647L116.955 53.6965C116.955 50.6435 119.423 48.171 122.473 48.171C125.526 48.171 127.998 50.6435 127.998 53.6965L128.004 89.1946C128.004 93.3839 124.604 96.7899 120.409 96.7899C118.469 96.7899 116.524 96.046 115.037 94.564L83.805 63.312V91.2543Z" fill="white"/>
<path d="M143.707 96.7927C137.604 96.7927 132.659 91.8449 132.659 85.7433V59.232C132.659 53.1318 137.604 48.1811 143.707 48.1811L178.915 48.1709C181.967 48.1709 184.438 50.6434 184.438 53.6963C184.438 56.7479 181.967 59.2232 178.915 59.2232L143.702 59.2276L143.704 85.7433L176.408 85.7389V77.9992H156.739C153.688 77.9992 151.214 75.5268 151.214 72.4767C151.214 69.4223 153.688 66.9542 156.739 66.9542L176.395 66.9848C182.495 66.9848 187.444 71.9312 187.444 78.0313V85.7433C187.444 91.8449 182.495 96.7927 176.395 96.7927H143.707Z" fill="white"/>
<path d="M191.212 53.282H192.263C193.144 53.282 193.952 53.2426 193.952 52.2259C193.952 51.3711 193.218 51.2384 192.541 51.2384H191.212V53.282ZM190.212 50.4317H192.7C194.233 50.4317 194.954 51.0341 194.954 52.2711C194.954 53.4351 194.22 53.9194 193.262 54.0215L195.104 56.8615H194.026L192.276 54.0959H191.212V56.8615H190.212V50.4317ZM192.368 58.3479C194.909 58.3479 196.888 56.3145 196.888 53.6247C196.888 50.9889 194.909 48.9585 192.368 48.9585C189.789 48.9585 187.812 50.9889 187.812 53.6247C187.812 56.3145 189.789 58.3479 192.368 58.3479ZM192.368 48.146C195.368 48.146 197.883 50.5178 197.883 53.6247C197.883 56.7901 195.368 59.1575 192.368 59.1575C189.347 59.1575 186.809 56.7901 186.809 53.6247C186.809 50.5178 189.347 48.146 192.368 48.146Z" fill="white"/>
</svg>
