<svg width="39" height="22" viewBox="0 0 39 22" fill="none" xmlns="http://www.w3.org/2000/svg">
<path d="M38.835 11.0146L19.418 21.999V22L0 10.9854L19.417 0L38.835 11.0146ZM24.541 6.80762C22.7644 6.80768 21.5841 7.84211 21.584 9.18066C21.584 10.8965 23.1413 11.2867 24.4678 11.6152C25.4534 11.8708 26.3181 12.0894 26.3184 12.8193C26.3184 13.3548 25.8556 13.9267 24.6875 13.9268C23.5557 13.9268 22.679 13.4039 22.1191 12.8076L21.3281 13.9023C22.0461 14.669 23.1293 15.1923 24.626 15.1924C26.8166 15.1924 27.7666 14.0364 27.7666 12.6855C27.7665 10.9211 26.1716 10.5077 24.833 10.167C23.8719 9.92367 23.0444 9.71641 23.0439 9.08398C23.0439 8.47549 23.5802 8.07324 24.4199 8.07324C25.2717 8.07335 26.1358 8.36532 26.7686 8.99805L27.584 7.93945C26.8294 7.20926 25.8067 6.80762 24.541 6.80762ZM11.0361 15.0469H12.46V12.0166H14.6016C16.2932 12.0166 17.2549 10.8479 17.2549 9.47266C17.2547 8.09759 16.3052 6.92969 14.6016 6.92969H11.0361V15.0469ZM19.2881 9.92773C18.7105 9.92773 18.2422 10.3961 18.2422 10.9736C18.2422 11.5512 18.7105 12.0195 19.2881 12.0195C19.8655 12.0193 20.334 11.5511 20.334 10.9736C20.3339 10.3962 19.8655 9.92795 19.2881 9.92773ZM14.4072 8.18262C15.2102 8.18276 15.7938 8.69406 15.7939 9.47266C15.7939 10.2514 15.2103 10.7626 14.4072 10.7627H12.46V8.18262H14.4072Z" fill="white"/>
</svg>
